<?xml version="1.0" encoding="UTF-8" standalone="no"?>
<!-- Created with Inkscape (http://www.inkscape.org/) -->

<svg
   width="320mm"
   height="40mm"
   viewBox="89 82 225 36"
   version="1.1"
   id="svg1"
   inkscape:version="1.4.2 (f4327f4, 2025-05-13)"
   sodipodi:docname="PerformimgPort_logo_finale_V1.svg"
   xmlns:inkscape="http://www.inkscape.org/namespaces/inkscape"
   xmlns:sodipodi="http://sodipodi.sourceforge.net/DTD/sodipodi-0.dtd"
   xmlns="http://www.w3.org/2000/svg"
   xmlns:svg="http://www.w3.org/2000/svg">
  <sodipodi:namedview
     id="namedview1"
     pagecolor="#ffffff"
     bordercolor="#cccccc"
     borderopacity="1"
     inkscape:showpageshadow="0"
     inkscape:pageopacity="1"
     inkscape:pagecheckerboard="0"
     inkscape:deskcolor="#d1d1d1"
     inkscape:document-units="mm"
     showguides="true"
     inkscape:zoom="0.68862935"
     inkscape:cx="463.96512"
     inkscape:cy="414.59168"
     inkscape:window-width="1920"
     inkscape:window-height="991"
     inkscape:window-x="-9"
     inkscape:window-y="-9"
     inkscape:window-maximized="1"
     inkscape:current-layer="layer1" />
  <defs
     id="defs1" />
  <g
     inkscape:label="Livello 1"
     inkscape:groupmode="layer"
     id="layer1">
    <path
       style="fill:#1e2b56;fill-opacity:1;stroke-width:0.264583"
       d="m 227.29195,117.21023 c -1.67217,-0.28367 -3.45776,-1.17892 -4.50364,-2.258 -1.00135,-1.03312 -1.06716,-0.89702 1.29907,-2.6868 l 1.68701,-1.27603 0.96928,0.96928 c 2.37649,2.37649 6.65538,1.20982 7.64214,-2.08368 0.17473,-0.58319 0.31769,-1.26301 0.31769,-1.51069 0,-0.4104 -0.0645,-0.4054 -0.72761,0.0564 -1.13981,0.79378 -2.37981,1.11682 -4.28701,1.11682 -8.3548,0 -9.00171,-12.013317 -0.85256,-15.83235 1.23686,-0.579641 1.87468,-0.703074 3.61822,-0.700203 2.20168,0.0036 3.29598,0.369075 4.55716,1.521885 0.61915,0.56596 0.72646,0.480621 0.92048,-0.732041 0.0766,-0.478943 0.32002,-0.536432 2.56461,-0.605713 l 2.47996,-0.07654 -0.14604,1.134877 c -0.0803,0.624184 -0.87524,4.46863 -1.76647,8.543205 -1.8293,8.36323 -2.63266,10.50367 -4.5622,12.15529 -2.48631,2.12818 -5.55923,2.88367 -9.21009,2.26432 z m 6.50473,-12.44454 c 2.17802,-1.05436 3.305,-3.887 2.31024,-5.806777 -0.34118,-0.658437 -0.82996,-1.066242 -1.71315,-1.429327 -1.10703,-0.455102 -1.36571,-0.471654 -2.48284,-0.158877 -2.63193,0.736896 -4.29986,3.424231 -3.52281,5.675871 0.71869,2.08257 3.09651,2.83836 5.40856,1.71911 z"
       id="path1" />
    <path
       style="fill:#4b866d;fill-opacity:1;stroke-width:0.264583"
       d="m 198.72016,91.371269 c 0,-0.744863 0.94765,-4.490699 1.17613,-4.648973 0.35371,-0.245025 4.97946,-1.809075 5.07319,-1.715338 0.12217,0.122168 -0.97918,4.812024 -1.17075,4.985385 -0.10108,0.09147 -1.07674,0.42918 -2.16815,0.750477 -2.91045,0.856803 -2.91042,0.856795 -2.91042,0.628449 z"
       id="path18" />
    <path
       style="fill:#1e2b56;fill-opacity:1;stroke-width:0.264583"
       d="m 34.148781,109.26805 c 0,-0.15541 2.275043,-4.41485 5.05565,-9.465413 2.780607,-5.050565 5.455457,-9.909312 5.944108,-10.797214 l 0.888458,-1.614369 4.24235,-0.05462 c 2.333292,-0.03004 4.24235,-0.01271 4.24235,0.03853 0,0.05123 -2.660115,5.028999 -5.911371,11.0617 l -5.911368,10.968546 -4.27509,0.0727 c -2.900394,0.0493 -4.275087,-0.0182 -4.275087,-0.20986 z"
       id="path17" />
    <path
       style="fill:#4b866d;fill-opacity:1;stroke-width:0.264583"
       d="m 21.448781,109.33824 c 0,-0.0464 1.233006,-2.31256 2.740012,-5.03582 4.934016,-8.916094 11.735265,-21.332103 12.314123,-22.480024 l 0.567037,-1.12448 h 4.198091 4.198093 l -2.152949,4.054616 c -1.184122,2.230038 -4.653261,8.654877 -7.709199,14.277416 l -5.55625,10.222802 -3.571875,0.0316 c -1.964531,0.0174 -3.899297,0.0556 -4.299479,0.085 -0.400182,0.0294 -0.727604,0.0154 -0.727604,-0.0311 z"
       id="path16" />
    <path
       style="fill:#1e2b56;fill-opacity:1;stroke-width:0.264583"
       d="m 9.3038037,108.41962 c 0.3148787,-0.62209 2.3336043,-4.29373 4.4860583,-8.1592 2.152453,-3.86547 4.184673,-7.586174 4.516042,-8.268232 l 0.602488,-1.240105 h 4.315166 4.315164 l -0.766765,1.389062 c -0.42172,0.763985 -2.291665,4.187032 -4.155432,7.606771 -1.86377,3.419744 -3.814234,6.991614 -4.334367,7.937504 l -0.945701,1.71979 -4.30258,0.0727 -4.30258,0.0727 z"
       id="path15" />
    <path
       style="fill:#4b866d;fill-opacity:1;stroke-width:0.264583"
       d="m 286.56183,109.32282 c 0,-0.26359 0.58375,-3.26992 1.29723,-6.68073 0.71347,-3.410805 1.43629,-6.886075 1.60625,-7.72282 l 0.30904,-1.521354 h 2.38032 c 2.61464,0 2.42605,-0.157064 1.92498,1.603156 -0.13047,0.458377 0.0384,0.397107 1.06457,-0.38616 0.6708,-0.512037 1.66333,-1.054198 2.2056,-1.204804 1.04399,-0.289938 2.78871,-0.370218 3.01998,-0.138956 0.0758,0.0758 -0.0452,1.01374 -0.26892,2.08431 l -0.40672,1.94649 -1.54107,0.139739 c -1.9618,0.17789 -3.32496,0.884637 -4.26087,2.209099 -0.58111,0.82236 -0.94647,2.02098 -1.70665,5.59883 l -0.96723,4.55246 h -2.32826 c -2.07105,0 -2.32825,-0.0529 -2.32825,-0.47926 z"
       id="path14" />
    <path
       style="fill:#4b866d;fill-opacity:1;stroke-width:0.264583"
       d="m 245.55141,109.60814 c 0,-0.30742 5.32587,-25.328453 5.409,-25.411585 0.0556,-0.05562 2.70112,-0.10183 5.8789,-0.102682 5.31897,-0.0013 5.90378,0.04512 7.36523,0.586179 6.66424,2.467239 5.95307,12.228187 -1.13292,15.549388 -1.41933,0.66524 -1.78718,0.71458 -5.94733,0.79759 -3.81684,0.0762 -4.46507,0.14986 -4.65446,0.52917 -0.12102,0.24237 -0.49118,1.75036 -0.82257,3.35109 -0.33139,1.60073 -0.71414,3.36477 -0.85055,3.92008 l -0.24802,1.00966 -2.49864,-0.0666 c -1.37425,-0.0366 -2.49864,-0.10966 -2.49864,-0.16227 z m 15.2381,-13.461481 c 1.23282,-0.585012 2.40794,-1.99432 2.76328,-3.313975 0.24395,-0.905928 0.21807,-1.306869 -0.14579,-2.259621 -0.67556,-1.768906 -1.73997,-2.20223 -5.40964,-2.20223 -1.60652,0 -2.92095,0.06017 -2.92095,0.133705 0,0.07354 -0.35718,1.818756 -0.79375,3.878267 -0.43656,2.059509 -0.79375,3.844811 -0.79375,3.967337 0,0.122526 1.44053,0.222774 3.20117,0.222774 2.39543,0 3.42725,-0.107286 4.09943,-0.426257 z"
       id="path13" />
    <path
       style="fill:#1e2b56;fill-opacity:1;stroke-width:0.264583"
       d="m 202.55257,109.47135 c 0.0614,-0.1819 0.83797,-3.66448 1.7257,-7.73906 0.88773,-4.074582 1.68118,-7.680506 1.76322,-8.013162 0.14359,-0.582266 0.2393,-0.602006 2.56548,-0.529166 l 2.41632,0.07566 -0.0762,0.727604 c -0.0929,0.887507 -0.0326,0.891799 1.20631,0.08587 2.98507,-1.941812 7.23642,-1.30352 8.71583,1.308586 0.8566,1.512433 0.77179,2.907792 -0.54642,8.990438 l -1.14679,5.29167 -2.5625,0.0758 c -2.5494,0.0754 -2.5618,0.0727 -2.42548,-0.52917 1.24482,-5.4965 1.99458,-9.17628 1.99458,-9.789234 0,-2.763734 -4.67685,-2.750873 -6.0527,0.01664 -0.264,0.53104 -0.93349,3.078884 -1.48777,5.661884 l -1.00777,4.69635 h -2.59674 c -1.96054,0 -2.56939,-0.081 -2.48511,-0.33073 z"
       id="path12" />
    <path
       style="fill:#1e2b58;fill-opacity:1;stroke-width:0.264583"
       d="m 194.59245,109.33906 c 0.0777,-0.25466 0.86127,-3.73724 1.74122,-7.73906 0.87996,-4.001823 1.66011,-7.543933 1.73367,-7.871355 0.12718,-0.566097 0.25685,-0.595312 2.64224,-0.595312 1.37967,0 2.5085,0.09767 2.5085,0.217051 0,0.261241 -3.38731,15.328046 -3.59456,15.988676 -0.12496,0.39829 -0.49668,0.46302 -2.65881,0.46302 -2.27129,0 -2.49993,-0.0446 -2.37226,-0.46302 z"
       id="path11" />
    <path
       style="fill:#1e2b56;fill-opacity:1;stroke-width:0.264583"
       d="m 164.67633,109.21673 c 0.0825,-0.3329 0.81728,-3.64137 1.6329,-7.35215 0.81562,-3.710778 1.6002,-7.193356 1.74352,-7.73906 l 0.26057,-0.992187 h 2.37107 c 2.35274,0 2.37106,0.0051 2.37106,0.661458 0,0.363802 0.0445,0.661459 0.099,0.661459 0.0544,0 0.67952,-0.327422 1.38907,-0.727605 2.43162,-1.371406 6.41357,-0.784635 7.66806,1.129954 l 0.43253,0.660125 1.01079,-0.913181 c 1.10891,-1.001823 3.16994,-1.737635 4.86068,-1.735317 3.36563,0.0046 5.69984,2.135232 5.70522,5.207606 7.9e-4,0.463902 -0.40362,2.607028 -0.89874,4.762498 -0.49512,2.15547 -1.03934,4.60365 -1.20939,5.4404 l -0.30918,1.52135 h -2.4948 c -1.44165,0 -2.49479,-0.10874 -2.49479,-0.25759 0,-0.14167 0.47625,-2.3026 1.05834,-4.80207 0.58208,-2.49946 1.05834,-4.889266 1.05834,-5.310681 0,-2.027195 -2.8338,-2.813113 -4.58843,-1.27254 -1.18461,1.040101 -1.32706,1.432663 -2.4967,6.880381 l -0.99411,4.63021 -2.58247,0.0758 c -2.57096,0.0755 -2.58185,0.0731 -2.44247,-0.52917 2.27089,-9.813445 2.34889,-10.437976 1.41255,-11.310299 -0.88004,-0.819886 -2.84112,-0.744286 -3.90454,0.150521 -0.45101,0.3795 -0.9596,0.945047 -1.1302,1.256771 -0.1706,0.311727 -0.80229,2.769427 -1.40376,5.461567 l -1.09358,4.89479 -2.59023,0.0761 c -2.58194,0.0759 -2.58975,0.0742 -2.44028,-0.52916 z"
       id="path10" />
    <path
       style="fill:#1e2b56;fill-opacity:1;stroke-width:0.264583"
       d="m 150.41919,109.08434 c 0.0904,-0.40561 0.91852,-4.13075 1.84021,-8.27809 l 1.6758,-7.540625 2.45182,-0.07654 2.45181,-0.07654 -0.17357,1.085429 -0.17357,1.085432 1.13029,-0.768485 c 1.50151,-1.02089 2.63581,-1.38158 4.34478,-1.38158 1.63935,0 1.61663,-0.06168 0.99097,2.689106 l -0.42476,1.867524 -1.03211,-0.165039 c -0.56767,-0.09077 -1.56019,-0.03207 -2.20561,0.130445 -1.19287,0.300368 -3.09626,1.707152 -3.61093,2.668833 -0.15589,0.29128 -0.73137,2.5132 -1.27884,4.9376 l -0.99541,4.40799 -2.57765,0.076 -2.57764,0.076 z"
       id="path9" />
    <path
       style="fill:#1e2b56;fill-opacity:1;stroke-width:0.264583"
       d="m 118.28639,109.59738 c 0,-0.12312 0.5948,-2.89563 1.32178,-6.16114 0.72697,-3.26551 1.32229,-5.967048 1.32292,-6.003428 6.3e-4,-0.03638 -0.59416,-0.06615 -1.32177,-0.06615 -1.52675,0 -1.53313,-0.01913 -0.83851,-2.513541 l 0.44206,-1.5875 1.37285,-0.07942 1.37285,-0.07942 0.29738,-1.508083 c 0.8424,-4.272121 1.83952,-6.020924 4.09509,-7.182178 1.12773,-0.580596 1.65583,-0.675904 3.74521,-0.675904 1.3378,0 2.48942,0.05953 2.55914,0.132291 0.0697,0.07276 -0.0605,1.107321 -0.28936,2.299026 l -0.41614,2.166734 -1.28395,-0.02925 c -2.11195,-0.04811 -2.85396,0.800003 -3.46811,3.964009 l -0.16691,0.859896 h 1.80138 c 0.99076,0 1.8584,0.05702 1.92809,0.126704 0.0697,0.06969 -0.0548,1.017632 -0.27655,2.106546 l -0.40326,1.979843 -1.99356,0.07627 -1.99356,0.07627 -1.32776,6.085415 -1.32777,6.08542 -2.57577,0.0757 c -1.41667,0.0417 -2.57577,-0.025 -2.57577,-0.14814 z"
       id="path8" />
    <path
       style="fill:#1e2b56;fill-opacity:1;stroke-width:0.264583"
       d="m 101.9791,109.21676 c 0.0902,-0.33292 0.88887,-3.93905 1.77493,-8.01364 0.88606,-4.074579 1.65707,-7.557157 1.71335,-7.739058 0.0721,-0.233013 0.81722,-0.330729 2.52194,-0.330729 h 2.41961 l -0.18573,1.238583 -0.18575,1.238581 0.99636,-0.874805 c 1.38636,-1.217232 2.45975,-1.602359 4.46594,-1.602359 1.97491,0 1.91596,-0.119266 1.24238,2.513542 l -0.47383,1.852083 -1.70295,0.01482 c -1.95617,0.01701 -3.47959,0.670393 -4.56182,1.956538 -0.83592,0.993434 -0.86075,1.068264 -2.02346,6.098444 l -0.94794,4.10104 -2.60847,0.0761 c -2.60448,0.076 -2.60822,0.0752 -2.44456,-0.52916 z"
       id="path7" />
    <path
       style="fill:#1e2b56;fill-opacity:1;stroke-width:0.264583"
       d="m 60.34253,109.55625 c 0,-0.13521 0.422852,-2.18904 0.939671,-4.56406 1.099695,-5.053628 4.294611,-19.646894 4.498792,-20.548938 l 0.140407,-0.620292 6.007962,0.106789 c 5.429022,0.0965 6.151266,0.163242 7.495133,0.692658 1.69654,0.668348 3.087827,1.900026 3.825933,3.387016 0.808207,1.628214 0.708713,5.326417 -0.195649,7.272329 -1.239131,2.66623 -3.380102,4.534495 -6.244577,5.449178 -0.75616,0.24145 -2.880365,0.46723 -5.349777,0.56862 l -4.095647,0.16816 -0.336886,1.5875 c -0.18529,0.87312 -0.593505,2.74836 -0.907147,4.16719 l -0.570259,2.57968 h -2.603979 c -1.432187,0 -2.603977,-0.11062 -2.603977,-0.24583 z M 75.88687,96.011695 c 2.327936,-1.126934 3.40233,-4.178855 2.131015,-6.053362 -0.362982,-0.535202 -1.015026,-1.059326 -1.544934,-1.241838 -1.05065,-0.361868 -5.975133,-0.458748 -6.183474,-0.121647 -0.152479,0.246718 -1.744863,7.28436 -1.744863,7.71154 0,0.163775 1.191834,0.266528 3.091465,0.266528 2.609559,0 3.272182,-0.08748 4.250791,-0.561221 z"
       id="path6" />
    <path
       style="fill:#4b866d;fill-opacity:1;stroke-width:0.264583"
       d="m 305.74412,109.90508 c -1.20658,-0.29171 -2.52701,-1.01019 -2.89848,-1.57714 -0.75192,-1.14755 -0.73025,-2.48801 0.10615,-6.57078 0.44437,-2.169139 0.80796,-4.044374 0.80796,-4.167191 0,-0.122817 -0.59532,-0.223303 -1.32292,-0.223303 -1.48553,0 -1.45256,0.07632 -0.97118,-2.248958 l 0.32867,-1.5875 1.44163,-0.132292 1.44166,-0.132291 0.52565,-2.579688 0.52565,-2.579687 h 2.42078 2.42075 l -0.49393,2.408131 c -0.27167,1.32447 -0.42783,2.515095 -0.34702,2.645834 0.0808,0.130736 0.95654,0.237701 1.94611,0.237701 h 1.7992 l -0.43432,1.918229 -0.43434,1.91823 -1.97485,0.132291 -1.97487,0.132292 -0.71237,3.307292 c -0.87344,4.05508 -0.86508,3.84839 -0.18296,4.53051 0.48136,0.48135 0.75949,0.53853 1.94308,0.39942 l 1.38133,-0.16235 -0.3607,1.90758 c -0.19839,1.04916 -0.44771,1.99178 -0.55401,2.09471 -0.24715,0.23923 -3.7279,0.4979 -4.42667,0.32896 z"
       id="path5" />
    <path
       style="fill:#4b866d;fill-opacity:1;stroke-width:0.264583"
       d="m 272.6712,109.71329 c -1.73865,-0.57735 -2.68483,-1.16769 -3.54597,-2.21241 -3.40026,-4.1251 -1.13958,-11.187623 4.41431,-13.79074 1.35356,-0.63441 1.81946,-0.709099 4.42333,-0.709099 2.64745,0 3.0321,0.06421 4.25715,0.710613 3.12031,1.646446 4.54017,4.770435 3.79899,8.358486 -0.44381,2.14844 -1.31318,3.71154 -2.8788,5.176 -2.05798,1.92499 -3.81645,2.62256 -6.88192,2.72998 -1.6238,0.0569 -2.9075,-0.0372 -3.58709,-0.26283 z m 5.66706,-4.31568 c 4.4059,-2.19556 3.74076,-8.295527 -0.90456,-8.295527 -2.97386,0 -5.57916,3.103357 -5.036,5.998707 0.11772,0.62736 0.51851,1.30612 1.089,1.84414 1.40573,1.32579 2.83234,1.4589 4.85156,0.45268 z"
       id="path4" />
    <path
       style="fill:#1e2b56;fill-opacity:1;stroke-width:0.264583"
       d="m 136.80733,109.96335 c -1.94672,-0.43284 -3.43853,-1.24406 -4.48994,-2.44154 -1.28997,-1.46918 -1.68996,-2.61218 -1.70637,-4.87611 -0.0125,-1.73131 0.0989,-2.2273 0.83762,-3.727837 1.59536,-3.240628 4.88829,-5.622055 8.36306,-6.048129 7.42541,-0.910495 12.02329,4.94425 8.97469,11.427986 -1.41057,2.99999 -3.92027,4.90506 -7.44644,5.65246 -2.07525,0.43987 -2.60652,0.44142 -4.53262,0.0132 z m 5.15005,-4.73285 c 1.45892,-0.82631 2.62485,-2.77191 2.62408,-4.37881 -0.002,-3.984422 -5.09277,-4.982528 -7.87573,-1.544109 -0.99931,1.234669 -1.2969,3.718239 -0.57715,4.816709 1.1363,1.7342 3.82058,2.24364 5.8288,1.10621 z"
       id="path3" />
    <path
       style="fill:#1e2b56;fill-opacity:1;stroke-width:0.264583"
       d="m 88.917533,109.96422 c -1.787527,-0.39636 -2.772645,-0.91036 -3.943575,-2.05761 -3.868013,-3.78981 -2.011455,-11.410658 3.425676,-14.06181 1.955917,-0.953706 3.728341,-1.250564 5.876233,-0.984189 3.367999,0.41769 5.634101,2.175407 6.457883,5.0091 0.40467,1.392009 0.38703,4.094039 -0.0311,4.770649 -0.11595,0.18762 -2.30297,0.28256 -6.509022,0.28256 -6.976506,0 -6.785495,-0.0523 -5.919966,1.62143 0.421606,0.8153 2.143002,1.80255 3.157455,1.81086 1.061911,0.009 2.548918,-0.5691 3.409751,-1.32492 l 0.881745,-0.77419 1.674735,0.65633 c 0.921105,0.36097 1.830753,0.65632 2.021441,0.65632 0.638841,0 0.356362,0.54471 -0.970614,1.87169 -1.458423,1.45842 -2.908865,2.18677 -5.197131,2.60978 -1.84837,0.34169 -2.459383,0.32956 -4.333471,-0.086 z M 96.32587,99.607126 c 0,-0.07743 -0.163947,-0.533167 -0.364323,-1.01274 -0.386486,-0.924984 -1.739325,-1.758051 -2.850665,-1.75541 -1.683667,0.004 -3.794728,1.140563 -4.473207,2.408311 -0.257313,0.480799 -0.11035,0.500629 3.710135,0.500629 2.187933,0 3.97806,-0.06335 3.97806,-0.14079 z"
       id="path2" />
  </g>
</svg>
